<svg width="1200" height="800" viewBox="0 0 1200 800" xmlns="http://www.w3.org/2000/svg" role="img" aria-labelledby="title desc">
  <title>Stress Detection System</title>
  <desc>Placeholder image for the Stress Detection System project.</desc>
  <defs>
    <linearGradient id="bg" x1="0" y1="0" x2="1" y2="1">
      <stop offset="0%" stop-color="#2563eb" />
      <stop offset="100%" stop-color="#0ea5e9" />
    </linearGradient>
    <linearGradient id="accent" x1="0" y1="0" x2="1" y2="1">
      <stop offset="0%" stop-color="#34d399" />
      <stop offset="100%" stop-color="#22d3ee" />
    </linearGradient>
  </defs>
  <rect width="1200" height="800" fill="url(#bg)" />
  <g opacity="0.18">
    <circle cx="900" cy="200" r="160" fill="white" />
    <circle cx="300" cy="520" r="240" fill="white" />
  </g>
  <rect x="220" y="160" width="760" height="420" rx="36" ry="36" fill="rgba(255,255,255,0.16)" stroke="rgba(255,255,255,0.28)" stroke-width="2" />
  <path d="M320 260h560" stroke="white" stroke-width="12" stroke-linecap="round" opacity="0.85" />
  <circle cx="380" cy="340" r="28" fill="white" opacity="0.95" />
  <circle cx="560" cy="340" r="28" fill="white" opacity="0.95" />
  <circle cx="740" cy="340" r="28" fill="white" opacity="0.95" />
  <path d="M340 460c70-80 140-40 220 0 80 40 150 50 220-30" stroke="white" stroke-width="12" fill="none" stroke-linecap="round" />
  <g transform="translate(360 320)">
    <circle cx="0" cy="0" r="80" fill="url(#accent)" opacity="0.9" />
    <circle cx="0" cy="0" r="32" fill="white" />
  </g>
  <text x="600" y="720" fill="white" font-family="Inter, sans-serif" font-size="58" font-weight="700" text-anchor="middle">Stress Detection System</text>
</svg>
